<svg width="336" height="67" viewBox="0 0 336 67" fill="none" xmlns="http://www.w3.org/2000/svg">
<path d="M153.921 31C153.489 28.6136 151.58 27.2045 149.239 27.2045C146.262 27.2045 144.103 29.5 144.103 33.1818C144.103 36.8636 146.262 39.1591 149.239 39.1591C151.58 39.1591 153.489 37.75 153.921 35.3636H152.512C152.171 36.9773 150.785 37.8409 149.239 37.8409C147.126 37.8409 145.467 36.2045 145.467 33.1818C145.467 30.1591 147.126 28.5227 149.239 28.5227C150.785 28.5227 152.171 29.3864 152.512 31H153.921ZM159.562 39.1818C161.925 39.1818 163.516 37.3864 163.516 34.6818C163.516 31.9545 161.925 30.1591 159.562 30.1591C157.198 30.1591 155.607 31.9545 155.607 34.6818C155.607 37.3864 157.198 39.1818 159.562 39.1818ZM159.562 37.9773C157.766 37.9773 156.948 36.4318 156.948 34.6818C156.948 32.9318 157.766 31.3636 159.562 31.3636C161.357 31.3636 162.175 32.9318 162.175 34.6818C162.175 36.4318 161.357 37.9773 159.562 37.9773ZM165.563 42.2727H166.904V37.6591H167.018C167.313 38.1364 167.881 39.1818 169.563 39.1818C171.745 39.1818 173.268 37.4318 173.268 34.6591C173.268 31.9091 171.745 30.1591 169.54 30.1591C167.836 30.1591 167.313 31.2045 167.018 31.6591H166.859V30.2727H165.563V42.2727ZM166.881 34.6364C166.881 32.6818 167.745 31.3636 169.381 31.3636C171.086 31.3636 171.927 32.7955 171.927 34.6364C171.927 36.5 171.063 37.9773 169.381 37.9773C167.768 37.9773 166.881 36.6136 166.881 34.6364ZM175.313 39H176.654V30.2727H175.313V39ZM175.995 28.8182C176.518 28.8182 176.95 28.4091 176.95 27.9091C176.95 27.4091 176.518 27 175.995 27C175.472 27 175.04 27.4091 175.04 27.9091C175.04 28.4091 175.472 28.8182 175.995 28.8182ZM181.678 39.2045C183.201 39.2045 183.996 38.3864 184.269 37.8182H184.337V39H185.678V33.25C185.678 30.4773 183.565 30.1591 182.451 30.1591C181.133 30.1591 179.633 30.6136 178.951 32.2045L180.224 32.6591C180.519 32.0227 181.218 31.3409 182.496 31.3409C183.729 31.3409 184.337 31.9943 184.337 33.1136V33.1591C184.337 33.8068 183.678 33.75 182.087 33.9545C180.468 34.1648 178.701 34.5227 178.701 36.5227C178.701 38.2273 180.019 39.2045 181.678 39.2045ZM181.883 38C180.815 38 180.042 37.5227 180.042 36.5909C180.042 35.5682 180.974 35.25 182.019 35.1136C182.587 35.0455 184.11 34.8864 184.337 34.6136V35.8409C184.337 36.9318 183.474 38 181.883 38ZM188.126 39H189.467V33.4773C189.467 32.2955 190.398 31.4318 191.671 31.4318C192.029 31.4318 192.398 31.5 192.489 31.5227V30.1591C192.336 30.1477 191.984 30.1364 191.785 30.1364C190.739 30.1364 189.83 30.7273 189.512 31.5909H189.421V30.2727H188.126V39Z" fill="#0A3871"/>
<rect x="0.5" y="0.5" width="335" height="66" rx="23.5" stroke="#0A3871"/>
</svg>
