<svg width="328" height="67" viewBox="0 0 328 67" fill="none" xmlns="http://www.w3.org/2000/svg">
<rect x="0.5" y="0.5" width="327" height="66" rx="23.5" fill="#D8DFE8"/>
<path d="M120.469 39C124.014 39 126.014 36.7955 126.014 33.1591C126.014 29.5455 124.014 27.3636 120.628 27.3636H116.878V39H120.469ZM118.287 37.75V28.6136H120.537C123.264 28.6136 124.651 30.3409 124.651 33.1591C124.651 36 123.264 37.75 120.378 37.75H118.287ZM131.855 39.1818C133.628 39.1818 134.923 38.2955 135.332 36.9773L134.037 36.6136C133.696 37.5227 132.906 37.9773 131.855 37.9773C130.281 37.9773 129.196 36.9602 129.134 35.0909H135.469V34.5227C135.469 31.2727 133.537 30.1591 131.719 30.1591C129.355 30.1591 127.787 32.0227 127.787 34.7045C127.787 37.3864 129.332 39.1818 131.855 39.1818ZM129.134 33.9318C129.224 32.5739 130.185 31.3636 131.719 31.3636C133.173 31.3636 134.105 32.4545 134.105 33.9318H129.134ZM143.69 32.2273C143.27 30.9886 142.327 30.1591 140.599 30.1591C138.759 30.1591 137.395 31.2045 137.395 32.6818C137.395 33.8864 138.111 34.6932 139.713 35.0682L141.168 35.4091C142.048 35.6136 142.463 36.0341 142.463 36.6364C142.463 37.3864 141.668 38 140.418 38C139.321 38 138.634 37.5284 138.395 36.5909L137.122 36.9091C137.435 38.392 138.656 39.1818 140.44 39.1818C142.469 39.1818 143.849 38.0739 143.849 36.5682C143.849 35.3523 143.088 34.5852 141.531 34.2045L140.236 33.8864C139.202 33.6307 138.736 33.2841 138.736 32.6136C138.736 31.8636 139.531 31.3182 140.599 31.3182C141.77 31.3182 142.253 31.9659 142.486 32.5682L143.69 32.2273ZM149.527 39.1818C151.3 39.1818 152.595 38.2955 153.004 36.9773L151.709 36.6136C151.368 37.5227 150.578 37.9773 149.527 37.9773C147.953 37.9773 146.868 36.9602 146.805 35.0909H153.141V34.5227C153.141 31.2727 151.209 30.1591 149.391 30.1591C147.027 30.1591 145.459 32.0227 145.459 34.7045C145.459 37.3864 147.004 39.1818 149.527 39.1818ZM146.805 33.9318C146.896 32.5739 147.857 31.3636 149.391 31.3636C150.845 31.3636 151.777 32.4545 151.777 33.9318H146.805ZM156.521 33.75C156.521 32.2273 157.464 31.3636 158.749 31.3636C159.993 31.3636 160.749 32.1761 160.749 33.5455V39H162.089V33.4545C162.089 31.2273 160.902 30.1591 159.135 30.1591C157.817 30.1591 156.999 30.75 156.589 31.6364H156.476V30.2727H155.18V39H156.521V33.75ZM168.085 39.1818C170.017 39.1818 171.29 38 171.517 36.4545H170.176C169.926 37.4091 169.131 37.9773 168.085 37.9773C166.494 37.9773 165.472 36.6591 165.472 34.6364C165.472 32.6591 166.517 31.3636 168.085 31.3636C169.267 31.3636 169.972 32.0909 170.176 32.8864H171.517C171.29 31.25 169.903 30.1591 168.062 30.1591C165.699 30.1591 164.131 32.0227 164.131 34.6818C164.131 37.2955 165.631 39.1818 168.085 39.1818ZM173.477 39H174.818V33.4773C174.818 32.2955 175.75 31.4318 177.023 31.4318C177.381 31.4318 177.75 31.5 177.841 31.5227V30.1591C177.688 30.1477 177.335 30.1364 177.136 30.1364C176.091 30.1364 175.182 30.7273 174.864 31.5909H174.773V30.2727H173.477V39ZM179.43 39H180.771V30.2727H179.43V39ZM180.112 28.8182C180.635 28.8182 181.067 28.4091 181.067 27.9091C181.067 27.4091 180.635 27 180.112 27C179.589 27 179.158 27.4091 179.158 27.9091C179.158 28.4091 179.589 28.8182 180.112 28.8182ZM183.227 42.2727H184.568V37.6591H184.682C184.977 38.1364 185.545 39.1818 187.227 39.1818C189.409 39.1818 190.932 37.4318 190.932 34.6591C190.932 31.9091 189.409 30.1591 187.205 30.1591C185.5 30.1591 184.977 31.2045 184.682 31.6591H184.523V30.2727H183.227V42.2727ZM184.545 34.6364C184.545 32.6818 185.409 31.3636 187.045 31.3636C188.75 31.3636 189.591 32.7955 189.591 34.6364C189.591 36.5 188.727 37.9773 187.045 37.9773C185.432 37.9773 184.545 36.6136 184.545 34.6364ZM196.773 30.2727H194.909V28.1818H193.568V30.2727H192.25V31.4091H193.568V36.8636C193.568 38.3864 194.795 39.1136 195.932 39.1136C196.432 39.1136 196.75 39.0227 196.932 38.9545L196.659 37.75C196.545 37.7727 196.364 37.8182 196.068 37.8182C195.477 37.8182 194.909 37.6364 194.909 36.5V31.4091H196.773V30.2727ZM201.358 39.2045C202.881 39.2045 203.676 38.3864 203.949 37.8182H204.017V39H205.358V33.25C205.358 30.4773 203.244 30.1591 202.131 30.1591C200.812 30.1591 199.312 30.6136 198.631 32.2045L199.903 32.6591C200.199 32.0227 200.898 31.3409 202.176 31.3409C203.409 31.3409 204.017 31.9943 204.017 33.1136V33.1591C204.017 33.8068 203.358 33.75 201.767 33.9545C200.148 34.1648 198.381 34.5227 198.381 36.5227C198.381 38.2273 199.699 39.2045 201.358 39.2045ZM201.562 38C200.494 38 199.722 37.5227 199.722 36.5909C199.722 35.5682 200.653 35.25 201.699 35.1136C202.267 35.0455 203.79 34.8864 204.017 34.6136V35.8409C204.017 36.9318 203.153 38 201.562 38ZM207.805 39H209.146V33.4773C209.146 32.2955 210.078 31.4318 211.351 31.4318C211.709 31.4318 212.078 31.5 212.169 31.5227V30.1591C212.016 30.1477 211.663 30.1364 211.464 30.1364C210.419 30.1364 209.51 30.7273 209.192 31.5909H209.101V30.2727H207.805V39Z" fill="#0A3871"/>
<rect x="0.5" y="0.5" width="327" height="66" rx="23.5" stroke="#0A3871"/>
</svg>
